<svg xmlns="http://www.w3.org/2000/svg" viewBox="0 0 180 180">
  <rect width="180" height="180" fill="#f8fafc"/>
  <rect x="10" y="10" width="46" height="46" fill="#0f172a"/>
  <rect x="16" y="16" width="34" height="34" fill="#f8fafc"/>
  <rect x="22" y="22" width="22" height="22" fill="#0f172a"/>
  <rect x="124" y="10" width="46" height="46" fill="#0f172a"/>
  <rect x="130" y="16" width="34" height="34" fill="#f8fafc"/>
  <rect x="136" y="22" width="22" height="22" fill="#0f172a"/>
  <rect x="10" y="124" width="46" height="46" fill="#0f172a"/>
  <rect x="16" y="130" width="34" height="34" fill="#f8fafc"/>
  <rect x="22" y="136" width="22" height="22" fill="#0f172a"/>

  <rect x="72" y="24" width="10" height="10" fill="#0f172a"/>
  <rect x="92" y="24" width="10" height="10" fill="#0f172a"/>
  <rect x="72" y="44" width="10" height="10" fill="#0f172a"/>
  <rect x="92" y="44" width="10" height="10" fill="#0f172a"/>

  <rect x="70" y="70" width="12" height="12" fill="#0f172a"/>
  <rect x="88" y="70" width="12" height="12" fill="#0f172a"/>
  <rect x="106" y="70" width="12" height="12" fill="#0f172a"/>
  <rect x="70" y="88" width="12" height="12" fill="#0f172a"/>
  <rect x="94" y="90" width="14" height="14" fill="#0f172a"/>
  <rect x="112" y="92" width="10" height="10" fill="#0f172a"/>

  <rect x="66" y="114" width="10" height="10" fill="#0f172a"/>
  <rect x="86" y="114" width="10" height="10" fill="#0f172a"/>
  <rect x="106" y="114" width="10" height="10" fill="#0f172a"/>
  <rect x="78" y="130" width="10" height="10" fill="#0f172a"/>
  <rect x="96" y="132" width="12" height="12" fill="#0f172a"/>
  <rect x="116" y="132" width="10" height="10" fill="#0f172a"/>
</svg>
